<svg width="950" height="280" viewBox="0 0 950 280" fill="none" xmlns="http://www.w3.org/2000/svg">
<g clip-path="url(#clip0_141_1219)">
<path d="M2.57099 191.407H28.285C31.459 191.407 34.411 191.963 37.142 193.071C39.871 194.181 42.237 195.723 44.237 197.699C46.237 199.675 47.808 201.999 48.951 204.667C50.094 207.337 50.665 210.231 50.665 213.351C50.665 216.333 50.061 219.141 48.855 221.775C47.648 224.411 46.029 226.733 43.998 228.743C41.965 230.755 39.601 232.349 36.902 233.527C34.203 234.707 31.331 235.295 28.283 235.295H9.71099V264.311H2.56799V191.407H2.57099ZM9.71399 228.015H28.286C30.317 228.015 32.253 227.617 34.096 226.819C35.936 226.023 37.555 224.947 38.953 223.595C40.349 222.243 41.46 220.683 42.286 218.915C43.11 217.147 43.524 215.293 43.524 213.351C43.524 211.271 43.143 209.33 42.381 207.527C41.619 205.725 40.555 204.183 39.191 202.899C37.825 201.617 36.206 200.595 34.334 199.831C32.46 199.069 30.444 198.687 28.287 198.687H9.71499L9.71399 228.015Z" fill="white"/>
<path d="M72.4 264.311V191.407H79.9V257.031H115.3V264.311H72.4Z" fill="white"/>
<path d="M169.8 191.511L201.457 264.311H192.429L182.943 242.471H147.057L137.571 264.311H128.543L160.2 191.511H169.8ZM165 201.287L150.257 235.191H179.742L164.999 201.287H165Z" fill="white"/>
<path d="M229.264 191.511L273.672 252.454V191.511H281.472V264.311H272.84L228.328 203.263V264.311H220.528V191.511H229.264Z" fill="white"/>
<path d="M306.73 264.311V191.511H351.632V198.791H313.88V220.631H347.056V227.911H313.88V257.031H351.632V264.311H306.73Z" fill="white"/>
<path d="M425.928 198.791H402.632V264.311H394.832V198.791H371.536V191.511H425.928V198.791Z" fill="white"/>
<path d="M479.147 191.112L512.468 263.912H502.965L492.981 242.072H455.21L445.226 263.912H435.723L469.044 191.112H479.148H479.147ZM474.095 200.888L458.577 234.792H489.612L474.095 200.888ZM471.569 183.832L479.388 170L489.132 172.808L478.306 183.832H471.57H471.569Z" fill="white"/>
<path d="M531.846 263.912V191.112H558.099C561.328 191.112 564.33 191.668 567.108 192.776C569.884 193.886 572.291 195.428 574.325 197.404C576.359 199.38 577.958 201.704 579.12 204.372C580.282 207.042 580.864 209.936 580.864 213.056C580.864 216.108 580.282 218.968 579.12 221.636C577.957 224.306 576.359 226.628 574.325 228.604C572.29 230.58 569.9 232.124 567.156 233.232C564.41 234.342 561.424 234.896 558.195 234.896H556.064L579.992 263.912H570.304L546.376 234.896H539.11V263.912H531.844H531.846ZM539.112 198.392V227.616H558.1C560.231 227.616 562.249 227.236 564.155 226.472C566.059 225.71 567.706 224.67 569.095 223.352C570.483 222.036 571.58 220.492 572.389 218.724C573.196 216.956 573.6 215.068 573.6 213.056C573.6 210.976 573.212 209.035 572.437 207.232C571.662 205.43 570.58 203.87 569.192 202.552C567.802 201.236 566.172 200.212 564.299 199.484C562.425 198.756 560.359 198.392 558.099 198.392H539.112Z" fill="white"/>
<path d="M611.2 191.511V264.311H603.4V191.511H611.2Z" fill="white"/>
<path d="M636.096 228.015C636.096 222.815 637.032 217.927 638.904 213.351C640.776 208.775 643.341 204.807 646.6 201.443C649.858 198.081 653.672 195.411 658.04 193.435C662.408 191.459 667.052 190.471 671.976 190.471C676.9 190.471 681.526 191.443 685.86 193.383C690.193 195.324 693.972 197.994 697.196 201.391C700.42 204.788 702.968 208.758 704.84 213.299C706.712 217.841 707.648 222.711 707.648 227.91C707.648 233.109 706.712 237.982 704.84 242.522C702.968 247.064 700.42 251.034 697.196 254.43C693.972 257.827 690.193 260.497 685.86 262.438C681.527 264.378 676.898 265.35 671.976 265.35C667.054 265.35 662.408 264.378 658.04 262.438C653.672 260.498 649.858 257.846 646.6 254.482C643.34 251.12 640.776 247.168 638.904 242.627C637.032 238.086 636.096 233.215 636.096 228.015ZM699.744 227.91C699.744 223.751 699.016 219.85 697.56 216.211C696.104 212.57 694.128 209.399 691.632 206.694C689.136 203.99 686.189 201.842 682.792 200.246C679.394 198.652 675.754 197.854 671.872 197.854C667.99 197.854 664.348 198.652 660.952 200.246C657.554 201.843 654.608 203.99 652.112 206.694C649.616 209.398 647.64 212.57 646.184 216.211C644.728 219.851 644 223.751 644 227.91C644 232.069 644.728 235.971 646.184 239.61C647.64 243.251 649.65 246.422 652.216 249.127C654.78 251.83 657.762 253.981 661.16 255.574C664.556 257.17 668.162 257.967 671.976 257.967C675.858 257.967 679.48 257.17 682.844 255.574C686.206 253.98 689.136 251.83 691.632 249.127C694.128 246.423 696.104 243.251 697.56 239.61C699.016 235.97 699.744 232.07 699.744 227.91Z" fill="white"/>
<path d="M725.285 285.116H720.715V181.116H725.285V285.116Z" fill="white"/>
<path d="M734.862 218.276V193.04H741.502C743.211 193.04 744.771 193.37 746.181 194.03C747.591 194.691 748.796 195.596 749.794 196.748C750.793 197.9 751.565 199.244 752.11 200.78C752.655 202.316 752.928 203.961 752.928 205.712C752.928 207.463 752.655 209.102 752.11 210.626C751.564 212.15 750.792 213.482 749.794 214.622C748.795 215.762 747.596 216.656 746.196 217.304C744.796 217.952 743.231 218.276 741.501 218.276H734.862ZM737.179 195.56V215.756H741.503C742.903 215.756 744.17 215.498 745.302 214.982C746.434 214.466 747.392 213.758 748.175 212.858C748.957 211.958 749.559 210.89 749.982 209.654C750.404 208.418 750.615 207.092 750.615 205.676C750.615 204.26 750.404 202.934 749.982 201.698C749.56 200.462 748.958 199.388 748.175 198.476C747.392 197.564 746.435 196.85 745.302 196.334C744.169 195.818 742.903 195.56 741.503 195.56H737.179Z" fill="white"/>
<path d="M759.502 218.276V193.076H775.045V195.596H761.977V203.156H773.461V205.676H761.977V215.757H775.045V218.277L759.502 218.276Z" fill="white"/>
<path d="M787.72 218.24V193.04H795.727C796.544 193.04 797.33 193.184 798.084 193.472C798.837 193.76 799.504 194.169 800.085 194.696C800.666 195.224 801.129 195.866 801.474 196.622C801.818 197.378 801.991 198.224 801.991 199.16C801.991 200.12 801.802 201.05 801.426 201.95C801.05 202.85 800.484 203.576 799.731 204.128C800.872 204.824 801.77 205.718 802.427 206.81C803.083 207.902 803.412 209.168 803.412 210.608C803.412 211.784 803.191 212.846 802.75 213.794C802.309 214.742 801.717 215.546 800.975 216.206C800.233 216.866 799.382 217.37 798.424 217.718C797.466 218.066 796.47 218.24 795.437 218.24H787.721H787.72ZM795.76 195.56H790.142V203.156H795.954C796.449 203.156 796.912 203.054 797.343 202.85C797.773 202.646 798.15 202.364 798.473 202.004C798.796 201.644 799.054 201.23 799.248 200.762C799.442 200.294 799.539 199.796 799.539 199.268C799.539 198.716 799.436 198.212 799.232 197.756C799.027 197.3 798.753 196.91 798.409 196.586C798.064 196.262 797.666 196.01 797.214 195.83C796.762 195.65 796.277 195.56 795.76 195.56ZM796.05 205.676H790.141V215.72H795.436C796.146 215.72 796.835 215.594 797.502 215.342C798.169 215.09 798.761 214.736 799.278 214.28C799.795 213.824 800.209 213.278 800.521 212.642C800.833 212.006 800.989 211.292 800.989 210.5C800.989 209.78 800.854 209.12 800.585 208.52C800.315 207.92 799.956 207.41 799.503 206.99C799.051 206.571 798.524 206.246 797.921 206.018C797.318 205.79 796.694 205.676 796.048 205.676H796.05Z" fill="white"/>
<path d="M808.466 218.24V193.04H817.777C818.922 193.04 819.987 193.232 820.972 193.616C821.956 194 822.81 194.534 823.532 195.218C824.253 195.902 824.82 196.706 825.233 197.63C825.645 198.554 825.851 199.556 825.851 200.636C825.851 201.692 825.645 202.682 825.233 203.606C824.82 204.53 824.254 205.334 823.532 206.018C822.81 206.702 821.963 207.237 820.99 207.62C820.016 208.004 818.957 208.196 817.812 208.196H817.056L825.542 218.24H822.106L813.62 208.196H811.043V218.24H808.466ZM811.042 195.56V205.676H817.776C818.532 205.676 819.248 205.544 819.923 205.28C820.598 205.016 821.182 204.656 821.675 204.2C822.167 203.744 822.557 203.21 822.843 202.598C823.129 201.986 823.272 201.332 823.272 200.636C823.272 199.916 823.135 199.244 822.86 198.62C822.585 197.996 822.201 197.456 821.709 197C821.216 196.544 820.638 196.19 819.974 195.938C819.309 195.686 818.577 195.56 817.775 195.56H811.042Z" fill="white"/>
<path d="M842.583 193.364L853.541 218.564H850.416L847.132 211.004H834.71L831.426 218.564H828.301L839.259 193.364H842.582H842.583ZM840.922 196.748L835.818 208.484H846.025L840.922 196.748Z" fill="white"/>
<path d="M856.79 212.156C856.944 212.732 857.222 213.272 857.619 213.776C858.016 214.28 858.497 214.712 859.06 215.072C859.623 215.432 860.253 215.715 860.95 215.918C861.646 216.122 862.37 216.224 863.121 216.224C863.938 216.224 864.69 216.098 865.375 215.846C866.06 215.594 866.651 215.252 867.148 214.82C867.645 214.388 868.038 213.872 868.325 213.272C868.612 212.672 868.756 212.024 868.756 211.328C868.756 210.128 868.309 209.162 867.414 208.43C866.518 207.698 865.044 207.092 862.988 206.612C857.685 205.388 855.033 203.036 855.033 199.556C855.033 198.596 855.226 197.714 855.613 196.91C856 196.106 856.536 195.416 857.221 194.84C857.906 194.264 858.723 193.814 859.673 193.49C860.623 193.166 861.673 193.004 862.822 193.004C863.794 193.004 864.706 193.118 865.556 193.346C866.406 193.574 867.174 193.904 867.86 194.336C868.545 194.768 869.125 195.29 869.6 195.902C870.075 196.514 870.423 197.204 870.644 197.972L868.623 198.98C868.335 197.996 867.65 197.192 866.567 196.568C865.484 195.944 864.213 195.632 862.755 195.632C861.164 195.632 859.882 195.986 858.91 196.694C857.937 197.402 857.451 198.332 857.451 199.484C857.451 200.564 857.954 201.494 858.959 202.274C859.965 203.054 861.539 203.696 863.683 204.2C866.29 204.824 868.202 205.694 869.417 206.81C870.632 207.926 871.24 209.384 871.24 211.184C871.24 212.264 871.03 213.278 870.61 214.226C870.19 215.174 869.61 215.99 868.87 216.674C868.13 217.358 867.257 217.898 866.252 218.294C865.246 218.69 864.169 218.888 863.02 218.888C862.07 218.888 861.153 218.749 860.269 218.474C859.385 218.198 858.579 217.808 857.849 217.304C857.12 216.8 856.485 216.2 855.944 215.504C855.402 214.808 854.999 214.028 854.734 213.164L856.79 212.156Z" fill="white"/>
<path d="M877.336 193.04V218.24H874.725V193.04H877.336ZM875.421 191.24L877.685 186.452L880.505 187.424L877.371 191.24H875.421Z" fill="white"/>
<path d="M883.413 218.276V193.04H886.009V215.756H898.263V218.276H883.413Z" fill="white"/>
<path d="M904.562 193.04V218.24H901.863V193.04H904.562Z" fill="white"/>
<path d="M922.747 193.04L933.705 218.24H930.58L927.297 210.68H914.875L911.591 218.24H908.466L919.424 193.04H922.747ZM921.086 196.424L915.982 208.16H926.188L921.085 196.424H921.086Z" fill="white"/>
<path d="M737.771 270.099V244.863H740.367V267.58H752.621V270.1L737.771 270.099Z" fill="white"/>
<path d="M755.954 244.899H758.654V261.063C758.654 262 758.858 262.881 759.266 263.709C759.674 264.537 760.232 265.257 760.94 265.868C761.648 266.48 762.47 266.967 763.406 267.326C764.342 267.686 765.35 267.866 766.43 267.866C767.51 267.866 768.518 267.686 769.454 267.326C770.39 266.967 771.205 266.48 771.902 265.868C772.598 265.257 773.15 264.537 773.558 263.709C773.966 262.881 774.17 261.999 774.17 261.063V244.899H776.87V261.063C776.87 262.359 776.594 263.578 776.042 264.717C775.49 265.857 774.74 266.859 773.792 267.723C772.844 268.587 771.74 269.265 770.48 269.757C769.22 270.248 767.87 270.495 766.43 270.495C764.99 270.495 763.64 270.242 762.38 269.738C761.12 269.234 760.009 268.556 759.05 267.705C758.09 266.852 757.334 265.856 756.782 264.717C756.23 263.577 755.954 262.359 755.954 261.063V244.899Z" fill="white"/>
<path d="M787.824 244.503V269.703H785.124V244.503H787.824Z" fill="white"/>
<path d="M795.657 267.148L812.613 247.024H796.269V244.503H816.069V247.06L799.113 267.184H815.205V269.704H795.657V267.148Z" fill="white"/>
<path d="M848.557 266.14C847.469 267.22 846.063 268.084 844.339 268.732C842.614 269.38 840.837 269.705 839.006 269.705C837.175 269.705 835.444 269.362 833.813 268.679C832.181 267.994 830.749 267.065 829.515 265.889C828.282 264.713 827.3 263.339 826.57 261.767C825.84 260.196 825.476 258.521 825.476 256.745C825.476 254.969 825.84 253.289 826.57 251.705C827.299 250.121 828.281 248.741 829.515 247.565C830.749 246.39 832.188 245.459 833.833 244.775C835.478 244.091 837.229 243.749 839.086 243.749C840.917 243.749 842.674 244.079 844.359 244.739C846.044 245.399 847.443 246.281 848.558 247.385L846.568 249.185C845.586 248.273 844.465 247.571 843.205 247.079C841.945 246.587 840.611 246.341 839.205 246.341C837.719 246.341 836.326 246.611 835.026 247.151C833.726 247.691 832.585 248.429 831.604 249.365C830.622 250.301 829.853 251.399 829.296 252.659C828.739 253.919 828.461 255.269 828.461 256.709C828.461 258.149 828.746 259.499 829.316 260.759C829.886 262.019 830.655 263.123 831.624 264.071C832.592 265.019 833.733 265.763 835.046 266.303C836.359 266.843 837.745 267.113 839.205 267.113C840.611 267.113 841.944 266.874 843.205 266.393C844.465 265.914 845.573 265.217 846.528 264.305L848.558 266.141L848.557 266.14Z" fill="white"/>
<path d="M853.565 269.702V244.502H862.876C864.022 244.502 865.087 244.694 866.071 245.078C867.055 245.462 867.909 245.996 868.631 246.68C869.353 247.364 869.919 248.168 870.332 249.092C870.744 250.016 870.95 251.018 870.95 252.098C870.95 253.154 870.744 254.144 870.332 255.068C869.919 255.991 869.353 256.796 868.631 257.48C867.909 258.164 867.062 258.699 866.089 259.082C865.115 259.467 864.056 259.658 862.911 259.658H862.155L870.64 269.702H867.204L858.719 259.658H856.142V269.702H853.565ZM856.143 247.023V257.139H862.876C863.632 257.139 864.348 257.007 865.023 256.743C865.699 256.479 866.283 256.119 866.775 255.663C867.267 255.208 867.657 254.674 867.944 254.061C868.23 253.449 868.373 252.795 868.373 252.099C868.373 251.379 868.236 250.707 867.961 250.083C867.687 249.459 867.303 248.919 866.811 248.463C866.318 248.007 865.74 247.653 865.076 247.401C864.411 247.149 863.679 247.023 862.877 247.023H856.143Z" fill="white"/>
<path d="M874.267 244.108H876.967V260.272C876.967 261.209 877.17 262.09 877.578 262.918C877.986 263.746 878.544 264.466 879.252 265.077C879.96 265.689 880.782 266.176 881.719 266.535C882.655 266.895 883.662 267.075 884.742 267.075C885.822 267.075 886.83 266.895 887.766 266.535C888.702 266.176 889.517 265.689 890.214 265.077C890.909 264.466 891.461 263.746 891.869 262.918C892.277 262.09 892.481 261.208 892.481 260.272V244.108H895.181V260.272C895.181 261.568 894.905 262.787 894.353 263.926C893.8 265.066 893.05 266.068 892.103 266.932C891.155 267.796 890.051 268.474 888.791 268.966C887.531 269.457 886.182 269.704 884.741 269.704C883.3 269.704 881.951 269.451 880.691 268.947C879.431 268.443 878.321 267.765 877.361 266.914C876.401 266.061 875.645 265.065 875.093 263.926C874.54 262.786 874.265 261.568 874.265 260.272V244.108H874.267Z" fill="white"/>
<path d="M901.17 268.984V243.749H903.766V266.465H916.02V268.985L901.17 268.984Z" fill="white"/>
<path d="M921.655 262.575C921.809 263.151 922.087 263.691 922.484 264.195C922.881 264.699 923.362 265.132 923.925 265.491C924.488 265.851 925.118 266.134 925.815 266.338C926.512 266.542 927.235 266.644 927.986 266.644C928.803 266.644 929.555 266.518 930.24 266.266C930.925 266.014 931.516 265.672 932.013 265.24C932.51 264.808 932.903 264.293 933.19 263.692C933.477 263.092 933.621 262.445 933.621 261.749C933.621 260.549 933.174 259.583 932.279 258.851C931.383 258.12 929.909 257.513 927.853 257.033C922.55 255.809 919.898 253.457 919.898 249.977C919.898 249.017 920.091 248.135 920.478 247.331C920.865 246.527 921.401 245.837 922.086 245.261C922.771 244.685 923.588 244.235 924.538 243.911C925.488 243.587 926.538 243.425 927.687 243.425C928.659 243.425 929.571 243.539 930.421 243.767C931.271 243.995 932.039 244.325 932.725 244.757C933.41 245.189 933.99 245.711 934.465 246.323C934.94 246.935 935.288 247.625 935.509 248.393L933.488 249.401C933.2 248.417 932.515 247.613 931.432 246.989C930.349 246.365 929.078 246.053 927.62 246.053C926.029 246.053 924.747 246.407 923.775 247.115C922.802 247.823 922.316 248.753 922.316 249.905C922.316 250.985 922.819 251.915 923.824 252.695C924.83 253.475 926.404 254.117 928.548 254.621C931.155 255.245 933.067 256.115 934.282 257.231C935.497 258.347 936.105 259.805 936.105 261.605C936.105 262.685 935.895 263.7 935.475 264.647C935.055 265.595 934.475 266.411 933.735 267.095C932.995 267.779 932.122 268.319 931.117 268.715C930.111 269.111 929.034 269.309 927.885 269.309C926.935 269.309 926.018 269.17 925.134 268.895C924.25 268.62 923.444 268.229 922.714 267.725C921.985 267.221 921.35 266.621 920.809 265.925C920.267 265.229 919.864 264.448 919.599 263.585L921.654 262.576L921.655 262.575Z" fill="white"/>
</g>
<path d="M1 148.841C8.99 139.586 13.33 130.925 19.73 120.894C26.518 129.059 7.057 148.803 1 152.215V148.841Z" fill="white"/>
<path d="M250.261 70.6798C250.066 69.3058 250.066 67.6958 250.066 65.5218C255.694 66.7878 257.343 71.9988 261.577 74.2278C261.765 73.3098 261.922 72.5398 262.187 71.2458C264.042 71.0768 266.162 70.8828 268.413 70.6778C267.881 68.8348 263.96 66.5717 262.703 64.8677C274.393 62.9817 289.406 61.1228 301.267 62.4578C310.02 59.0438 319.863 61.4758 328.923 59.1628C333.411 65.8208 339.865 70.9238 344.194 77.3798H339.166C337.104 80.6038 338.128 96.3128 337.97 101.201C337.618 112.114 334.977 125.082 336.541 135.712C337.282 136.446 338.082 137.237 338.881 138.028C341.746 135.166 344.211 136.038 346.467 138.821C344.382 143.207 340.081 140.646 336.975 141.775C336.248 142.705 337.336 143.298 338.032 144.229C332.645 145.039 327.327 145.839 321.762 146.676C320.74 145.1 319.736 143.554 318.384 141.47C316.868 141.536 314.77 141.628 312.001 141.75C313.073 142.707 313.486 143.076 313.914 143.458C308.957 145.91 301.37 146.711 291.153 145.863C295.477 144.264 298.667 145.156 301.734 144.757C302.49 144.009 303.289 143.218 304.09 142.425C300.433 139.216 288.815 141.568 283.394 139.402C284.735 138.075 285.535 137.283 286.385 136.441C301.515 136.441 315.923 136.43 330.916 138.673C331.931 136.423 332.783 134.535 333.455 133.044C329.382 130.342 325.904 128.035 321.826 125.329C323.878 121.518 325.601 118.317 327.461 114.863C325.816 113.776 323.583 112.302 321.351 110.827C323.94 105.718 318.388 100.926 323.129 96.6758C321.328 96.3558 319.776 96.0808 318 95.7658V91.6238C318.838 91.3238 319.819 90.9738 320.802 90.6248C319.42 89.1728 318.037 87.7178 316.404 86.0008C313.771 86.6718 310.972 89.4737 307.593 86.9367C307.34 83.4517 310.461 83.0678 314.54 81.3778H287.3C284.935 79.6898 283.245 78.4848 281.314 77.1068C277.161 90.9178 283.086 111.931 282.879 126.59C282.774 134.011 283.725 139.238 285.179 146.506C286.734 154.278 290.643 164.822 280.247 168.394C274.263 165.301 268.505 164.821 261.999 163.029V150.205C252.904 150.735 244.426 152.439 236.451 155.363C234.547 153.283 232.873 151.454 232.344 150.877C225.173 149.974 219.866 149.305 213.328 148.482C215.055 151.08 216.17 152.758 217.31 154.473C215.076 157.403 212.64 160.598 210.316 163.647C202.705 162.871 197.152 166.709 190.919 169.93C189.847 168.717 188.39 167.067 186.899 165.379H169.24C165.628 157.586 173.816 152.559 173.518 145.091C171.117 145.091 168.932 145.091 166.67 145.179C166.704 145.158 166.814 145.048 166.925 144.939C166.531 144.481 166.136 144.023 165.742 143.565L165.207 144.095C165.669 144.486 166.13 144.876 166.67 145.179C165.997 146.195 165.249 147.299 164.516 148.379H147.128C146.392 149.318 145.534 150.412 144.913 151.204C134.879 153.204 125.395 155.315 116.323 160.082C105.412 161.544 93.389 159.113 83.388 154.991C86.648 150.619 93.573 145.197 87.922 140.172C81.578 139.231 73.046 142.79 69.723 133.593C63.75 134.23 62.708 140.498 58.177 142.524C58.605 146.556 55.132 144.449 53 145.59V155.37C49.424 154.684 46.396 154.103 43.325 153.513C42.91 155.797 42.63 157.342 42.321 159.043C38.548 158.509 37.492 156.357 37.771 153.008C35.542 151.889 33.244 150.735 30.96 149.588C30.96 148.71 30.96 147.866 30.77 146.847C30.752 146.9 30.925 147.128 31.098 147.356C33.284 146.462 35.469 145.568 37.905 144.573C36.677 143.421 35.916 142.708 36.078 142.86C34.153 144.196 32.366 145.435 30.771 146.848C29.026 148.547 27.09 150.072 24.132 152.403C19.907 151.773 14.616 150.983 9.16699 150.17C9.06399 149.278 8.97597 148.514 8.84497 147.378H24.625C29.294 139.253 36.012 132.91 39.132 123.524C32.685 120.712 26.264 119.762 20.164 115.936C26.131 112.617 38.723 117.786 46.248 116.222C46.248 100.321 46.891 80.1077 42.671 64.7088C39.942 64.1168 37.785 60.9228 34.378 63.2188C35.045 65.3858 35.725 67.5918 36.39 69.7528C33.272 72.7428 30.428 75.4688 28.009 77.7878C28.625 79.9548 29.114 81.6727 29.726 83.8247C27.602 84.2477 25.858 84.5948 23.113 85.1408C25.111 85.8238 26.096 86.1608 27.082 86.4978C27.1213 89.3238 25.6456 92.2414 22.655 95.2508C23.176 96.7708 24.238 97.9318 25.842 98.7348C27.2 104.297 19.991 105.093 20.437 111.83C16.622 104.21 18.433 67.6558 14.098 65.1128C14.987 60.9148 12.202 57.2728 12.256 52.6348C13.755 52.5078 15.281 52.3778 16.706 52.2568C17.197 53.5958 17.554 54.5718 18.209 56.3608C18.739 54.7668 19.03 53.8938 19.452 52.6258C24.267 52.5268 27.937 53.9978 34.717 54.9748C35.88 53.8228 34.508 53.4347 32.659 54.7857C33.683 55.0757 34.706 55.3658 34.717 54.9748C30.947 52.2318 29.235 50.4658 27.031 48.1928C44.279 41.1008 67.022 38.4868 85.6 40.4678C104.116 34.7128 129.538 37.0848 149.06 37.0848C150.186 38.2828 151.089 39.2438 152.195 40.4218C148.897 43.5108 145.407 44.2458 141.842 43.8028C142.381 46.2138 142.805 48.1148 143.224 49.9888C138.364 52.0748 135.7 47.0718 130.187 47.2578C133.586 50.1338 136.019 52.1918 139.284 54.9548C133.673 55.6828 132.472 56.2498 127.707 58.5678C138.274 59.4038 146.516 63.0098 156.644 65.8318C155.987 67.7058 156.634 68.8148 158.582 69.1558C163.308 68.7618 156.805 65.8548 156.644 65.8318C156.649 64.9948 156.649 64.1537 156.649 62.6177C185.504 64.7617 219.155 59.0908 246.411 64.9088C239.966 66.1098 235.007 67.0348 230.039 67.9608C234.293 72.9948 244.369 70.9108 250.261 70.6758C249.83 72.5768 249.361 74.1748 248.801 76.0848C251.068 75.9098 253.091 75.7528 255.545 75.5638C253.667 73.6728 252.29 72.2878 250.261 70.6758V70.6798ZM127.975 45.7838C127.865 45.8938 127.754 46.0038 127.644 46.1128C128.038 46.5718 128.431 47.0318 128.825 47.4908C129.003 47.3138 129.181 47.1358 129.359 46.9588C128.898 46.5668 128.436 46.1748 126.507 46.0048C126.994 45.9758 127.481 45.9458 127.968 45.9168C127.753 44.8228 127.538 43.7288 127.323 42.6348C126.958 42.6838 126.594 42.7328 126.229 42.7828C126.322 43.8568 126.414 44.9318 127.975 45.7848V45.7838ZM273.634 74.4548C273.524 74.5648 273.413 74.6748 273.303 74.7838C273.697 75.2428 274.09 75.7028 274.484 76.1618C274.662 75.9848 274.84 75.8068 275.018 75.6298C274.557 75.2378 274.095 74.8457 269.377 72.6828C270.269 74.8048 271.637 75.1928 273.481 73.8448C272.46 73.5558 271.44 73.2678 273.634 74.4548ZM63.46 91.4978C65.127 90.6708 66.794 89.8437 68.562 88.9667C66.022 88.0217 63.894 87.2298 61.613 86.6148L61.944 86.2857C61.55 85.8267 61.157 85.3668 60.763 84.9078L60.229 85.4398C60.69 85.8318 61.152 86.2238 61.766 86.4388C62.331 88.1258 62.895 89.8118 63.637 91.6508L63.306 91.3218C62.845 91.7138 62.383 92.1058 61.922 92.4978L62.456 93.0298C62.85 92.5708 63.243 92.1108 63.459 91.4988L63.46 91.4978ZM176.786 76.4818C176.896 76.3718 177.007 76.2618 177.117 76.1528C176.723 75.6938 176.33 75.2338 175.936 74.7748C175.758 74.9518 175.58 75.1298 175.402 75.3068C175.863 75.6988 176.325 76.0908 176.422 74.8008C185.348 98.4688 182.97 137.479 173.687 160.382H190.571C192.37 155.121 194.136 149.954 195.876 144.863C192.745 142.433 189.901 140.226 187.34 138.238C188.633 135.76 189.6 133.909 190.55 132.088C184.688 124.635 192.242 107.738 192.124 99.1448C191.946 86.1628 186.683 81.7508 176.786 76.4828V76.4818ZM203.796 88.7048C205.969 90.8798 207.044 91.9548 208.502 93.4138C207.532 94.1318 205.589 95.5718 203.52 97.1038C207.561 99.7668 213.685 99.5278 212.41 105.634C208.7 108.115 205.494 110.259 202.619 112.182C203.919 114.257 204.97 115.935 206.264 118.002C203.812 118.387 202.263 118.63 200.854 118.851C200.022 125.028 201.761 131.024 199.508 136.907C213.074 146.589 243.235 139.654 259.931 143.95C259.931 137.055 262.538 120.404 258.802 114.705C258.379 116.789 258.027 118.523 257.53 120.968C255.676 119.662 254.389 118.756 253.676 118.254C255.826 112.834 254.328 107.532 254.927 102.479C256.18 101.125 257.447 99.7558 258.745 98.3518C244.604 86.9388 228.947 88.0368 212.82 84.7618C212.503 86.2968 212.344 87.0638 212.179 87.8658C209.896 88.0948 207.789 88.3058 207.738 89.9008C203.481 89.7118 201.451 89.8038 202.823 93.0648C204.174 92.1948 205.375 91.4228 203.796 88.7048ZM173.145 138.721C175.591 124.406 181.511 91.1738 169.606 79.9818C158.067 79.1498 146.642 76.6978 135.276 78.3748C130.852 83.6588 127.974 88.4468 124.972 94.6628C123.483 94.8308 121.388 95.0678 119.115 95.3238C119.411 96.5718 119.591 97.3327 119.642 97.5487C121.818 97.1497 123.739 96.7968 125.673 96.4418C127.491 103.816 124.15 108.519 119.358 112.493C119.358 119.923 119.358 127.219 119.36 134.514C129.09 144.173 160.202 138.721 173.145 138.721ZM58.951 124.092C70.229 118.112 82.839 134.365 95.257 124.774C97.609 107.79 98.938 90.9768 98.938 73.7878L96.397 71.2578C88.668 71.2578 79.485 71.1948 72 69.3368V72.6848C75.086 73.5988 79.999 71.3008 80.353 77.4688C78.651 77.8078 76.911 78.1548 74.561 78.6238C76.331 79.4528 77.449 79.9768 78.686 80.5568C76.339 81.7098 74.147 82.7878 72.339 83.6758C74.785 90.5228 66.471 95.5158 61.514 99.1698C62.385 101.578 63.103 103.561 63.648 105.066C60.89 107.257 58.616 109.063 56.2 110.982C57.077 115.159 57.895 119.059 58.951 124.09V124.092ZM112.486 134.487C106.745 126.573 103.419 90.1638 110.779 83.9028C107.933 82.0378 110.074 78.7237 108.686 76.3807H106.102C103.646 96.8008 105.372 119.147 103.707 140.119C101.623 141.836 99.239 142.521 96.555 142.176C94.133 146.35 92.214 149.659 89.295 154.69C95.432 151.998 99.25 157.388 104.526 154.681C107.604 148.349 110.398 142.6 111.38 135.588C111.779 135.191 112.179 134.793 112.486 134.487ZM273 89.2628C271.467 87.3908 265.326 77.3528 262.464 79.2718C266.12 84.1318 263.415 93.1737 266.166 95.6047C264.457 108.426 264.582 120.955 264.582 133.869C267.86 132.843 270.496 132.018 273.001 131.234L273 89.2628ZM66.594 58.1938C75.965 65.0298 96.473 69.8278 108.077 67.9918C111.144 69.9878 113.364 71.4318 115.585 72.8778C120.229 70.6918 125.299 70.6368 133 72.7738V69.7018C129.026 69.1458 124.966 70.6618 121.664 67.8868C118.078 70.7788 114.872 67.6308 111.491 67.3688C111.32 65.9268 111.163 64.6008 111.014 63.3448C96.488 61.6608 82.083 59.9908 66.595 58.1948L66.594 58.1938ZM265.76 160.774C268.446 159.907 270.68 159.186 273.128 158.396C275.698 154.635 274.53 148.52 280.477 146.125C278.279 144.697 276.617 143.616 274.621 142.319C275.515 141.152 276.149 140.326 277.266 138.868C273.752 137.763 270.433 136.719 266.363 135.438C269.248 143.807 262.522 154.512 265.76 160.775V160.774ZM80.598 45.7798C66.578 46.7428 51.928 46.7968 38.235 50.0317C50.069 51.6487 61.68 47.4618 73.889 49.9298C73.298 51.3968 72.782 52.6758 72.222 54.0638C79.14 55.5478 85.175 56.0788 92.261 56.0788C92.266 55.6548 92.272 55.2318 92.277 54.8078C90.195 54.5808 88.112 54.3548 85.273 54.0458C84.073 51.9238 82.667 49.4368 80.598 45.7798ZM85.79 46.5128C93.561 49.5108 113.155 54.1398 120.499 50.5238C119.917 48.4788 119.359 46.5228 118.718 44.2738C107.419 44.2738 96.974 45.0438 85.79 46.5128ZM208.031 67.9328C194.962 68.6927 177.557 65.7708 165.095 69.6748C177.513 69.2888 198.224 78.5298 208.031 67.9328ZM55.598 128.585C53.81 132.89 52.033 137.17 50.295 141.354L53.932 143.615C56.812 140.326 59.66 137.075 63 133.261V131.027C60.494 130.2 58.045 129.392 55.598 128.585ZM249.593 148.95C247.431 142.172 222.905 145.074 216 143.62V147.154C227.378 147.154 238.279 147.747 249.593 148.95ZM202.598 77.3798H227.855C224.497 72.0738 207.154 76.2018 202.598 77.3798ZM119.954 148.535C121.82 146.014 123.027 144.382 124.758 142.043C117.094 140.017 114.92 142.803 112.126 150.837C115.553 149.829 117.982 149.115 119.954 148.535ZM201.514 144.38C199.629 149.421 197.865 154.135 195.867 159.477C203.533 157.115 202.56 148.681 207.985 144.38H201.514ZM326.647 74.8208C322.417 68.7477 308.157 70.5897 302.286 72.1867C311.285 73.1597 318.411 73.9298 326.647 74.8208ZM299.144 66.1988C299.182 66.7778 299.22 67.3577 299.257 67.9367C306.434 67.5617 313.812 69.0378 320.537 64.8608C313.411 64.9078 306.351 66.1988 299.144 66.1988ZM48.46 55.2288C52.254 55.2018 55.634 59.7548 60.081 56.9278C56.638 54.5808 52.899 53.7418 48.46 55.2288ZM120 80.1748V87.9718C121.792 87.1088 123.304 86.3808 123.485 86.2928C122.683 84.8858 121.662 83.0938 120 80.1748ZM152.917 142.629C150.457 142.52 148.405 143.288 146.762 144.932C149.222 145.04 151.274 144.273 152.917 142.629ZM245.54 87.3798H251.611C251.351 86.0888 251.163 85.1548 250.827 83.4888C248.997 84.8358 247.702 85.7888 245.54 87.3798ZM73.658 76.1558C69.197 73.8418 66.413 74.2508 65.304 77.3798H73.37C73.525 76.7218 73.503 76.8138 73.658 76.1558ZM55 61.0668C52.723 61.2208 50.648 61.3608 47.517 61.5728C48.685 62.0788 53.657 65.1518 55 63.8148V61.0678V61.0668ZM30.149 70.0708C27.627 70.2054 25.934 71.4524 25.07 73.8117C26.984 72.4017 28.276 71.4498 30.149 70.0708ZM120 106.38H121V101.38H120V106.38ZM57.722 98.5708L56.55 98.6458L57.167 101.464L58.001 101.35L57.722 98.5708ZM328 125.38H329V122.38H328V125.38ZM274 68.3798V69.3798H277V68.3798H274ZM217.898 68.3798L217.992 69.8238L220.822 69.2098L220.669 68.0998L217.898 68.3798ZM89.134 134.38C89.195 134.866 89.256 135.351 89.317 135.837C90.236 135.619 91.154 135.4 92.073 135.182C92.029 134.915 91.984 134.647 91.94 134.38H89.134ZM259.687 105.59C259.461 105.365 259.273 105.177 259.084 104.99C258.335 105.674 258.335 106.236 259.084 106.677C259.287 106.311 259.491 105.944 259.687 105.591V105.59ZM56.441 74.0317C56.245 73.6787 56.042 73.3118 55.838 72.9458C55.089 73.3857 55.089 73.9478 55.838 74.6328C56.026 74.4458 56.214 74.2578 56.441 74.0328V74.0317ZM56.929 80.2918C57.125 80.6448 57.328 81.0118 57.532 81.3778C58.281 80.9378 58.281 80.3758 57.532 79.6908C57.344 79.8778 57.156 80.0658 56.929 80.2908V80.2918ZM308.446 141.851C308.672 141.626 308.86 141.438 309.049 141.251C308.362 140.505 307.797 140.505 307.355 141.251C307.723 141.453 308.091 141.656 308.446 141.851ZM198.355 82.8218C198.581 82.5968 198.769 82.4088 198.958 82.2218C198.271 81.4758 197.706 81.4758 197.264 82.2218C197.632 82.4238 198 82.6268 198.355 82.8218ZM96.732 57.5228C96.958 57.2978 97.146 57.1098 97.335 56.9228C96.648 56.1768 96.083 56.1768 95.641 56.9228C96.009 57.1248 96.377 57.3278 96.732 57.5228ZM207.426 104.147C206.984 103.401 206.42 103.401 205.732 104.147C206.174 104.893 206.739 104.893 207.426 104.147ZM213.109 69.3288C213.464 69.1338 213.832 68.9308 214.2 68.7288C213.758 67.9828 213.194 67.9828 212.506 68.7288C212.694 68.9158 212.882 69.1038 213.109 69.3288Z" fill="white"/>
<path d="M328.51 38.8377C329.847 36.8057 330.71 35.4937 331.6 34.1417C352.484 39.8837 377.321 38.0837 398.993 39.4557C415.658 40.5107 445.183 38.9997 457.664 52.2407C454.068 52.5007 451.675 52.6737 448.772 52.8827C447.471 54.5267 444.428 55.4367 444.534 58.8647C448.982 57.9347 453.329 57.3757 456.777 54.3917C461.517 55.4957 464.719 49.8857 470.292 51.3477C468.523 55.5537 473.123 76.6307 468.258 79.8707C468.19 89.8967 466.564 99.7147 466.564 109.639C468.223 110.633 469.811 111.584 471.391 112.532C470.91 113.24 470.346 114.069 469.54 115.255C474.643 121.072 480.147 126.646 481.86 134.451C480.962 135.345 480.164 136.14 479.409 136.892C474.858 137.864 460.671 136.316 457.147 140.306C456.539 139.757 455.931 139.208 454.887 138.265C447.479 145.918 418.897 153.334 409.31 148.237C407.201 143.6 414.086 140.624 411.761 135.285C407.433 135.907 403.115 136.655 399.696 140.379H390.043C385.674 142.364 387.23 146.083 386.932 149.507C379.681 156.653 347.54 172.123 341.324 159.704C345.37 157.231 350.937 161.416 354.6 156.566C355.394 152.227 353.178 146.589 359.943 142.931C359.487 147.042 360.899 150.273 358.523 153.171C359.128 154.331 359.854 155.725 360.513 156.99C361.88 156.334 363.26 155.671 365.135 154.771C364.681 153.692 364.207 152.563 363.519 150.925C364.418 150.288 365.737 149.352 367.52 148.087C365.696 147.462 364.713 147.125 364.001 146.706V142.95C365.086 141.869 366.708 140.773 368.33 139.676C368.136 139.309 367.941 138.941 367.747 138.574C366.166 139.186 364.584 139.798 363.214 140.329C361.261 138.267 359.36 136.26 357.186 133.966C360.59 129.763 357.641 118.47 357.811 113.468C358.206 101.832 359.504 90.2327 359.941 78.5787C357.972 77.3837 355.832 76.0847 352.812 74.2507C356.276 93.6137 354.78 114.301 354.78 134.09C353.7 135.412 353.007 136.26 352.273 137.158C348.747 130.87 351.227 114.837 350.776 107.693C349.94 94.4607 349.754 81.7047 346.501 68.8647C348.845 67.7817 351.144 66.7197 353.592 65.5877C352.525 63.4537 351.836 62.0757 350.996 60.3957C353.679 59.3167 357.996 59.9977 359.645 57.0937C358.879 55.6107 358.158 54.2147 357.269 52.4917C350.982 56.6457 346.917 52.6547 343.002 48.4257V43.6047C338.333 42.0907 333.866 40.6107 328.512 38.8367L328.51 38.8377ZM366.005 76.9687C366.573 77.5377 367.141 78.1067 368.001 78.4127V132.798C379.151 138.226 398.314 130.797 408.532 125.6C407.991 124.965 407.493 124.38 406.642 123.38H411.657C412.949 128.204 408.619 129.537 406.354 133.158C410.415 132.42 413.462 131.867 416.338 131.344C417.577 134.087 418.552 136.243 419.517 138.38H422.971C424.096 140.146 425.198 141.875 427.001 144.704V138.388C425.796 137.407 423.836 135.812 422.127 134.421C422.278 132.521 422.384 131.198 422.567 128.898C425.361 131.524 428.63 133.24 432.373 134.046C431.772 136.491 431.171 138.936 430.239 142.723C435.593 140.088 440.761 141.381 444.77 137.145C437.158 133.583 432.622 127.627 428.031 121.516C426.402 124.513 422.871 118.69 421.46 123.096C418.905 120.398 416.407 117.762 413.909 115.125C414.078 115.043 414.246 114.961 414.415 114.879C413.043 112.359 411.672 109.84 410.313 107.345C410.992 106.228 411.671 105.111 412.346 104C410.261 102.033 406.586 102.099 406.902 98.4047C408.64 97.2937 410.365 96.1917 411.467 95.4877C410.879 90.7057 406.346 87.2567 409.508 83.1207C408.203 80.3437 407.082 77.9587 405.701 75.0197C394.024 80.1887 380.102 74.8917 367.71 78.6747C367.142 78.1057 366.574 77.5367 365.611 76.5667C366.352 75.0867 367.174 73.4457 368.037 71.7217C382.873 73.4547 399.856 70.1407 414.598 70.1407C403.794 62.8597 371.413 65.4867 359.84 70.7937C361.649 72.6027 363.616 74.5717 366.006 76.9677L366.005 76.9687ZM462 112.839V110.556C459.311 109.038 454.494 111.808 453.158 107.068C455.565 103.18 451.598 99.3257 453.199 95.5357C451.486 94.8677 450.339 94.4207 448.331 93.6377C450.383 91.5727 451.735 90.2117 453 88.9377V80.9457C450.554 77.7337 448.386 74.8877 446.199 72.0147C448.58 69.9907 447.86 67.3757 447.114 64.5367C440.736 64.2897 435.345 65.8507 431.583 70.5767C431.583 85.9947 434.467 104.291 428.324 118.326C438.963 119.108 451.75 115.624 462 112.837V112.839ZM472.062 123.622C468.449 120.937 465.02 118.39 462.55 116.554C455.912 117.931 450.493 119.055 446.22 119.941C444.114 121.755 442.734 122.943 441.954 123.614C445.406 129.12 451.252 131.964 454.89 135.807C462.221 134.643 468.502 133.645 474.783 132.648L474.683 131.38H466.331C466.933 127.513 468.768 125.347 472.062 123.622ZM424.331 57.0617C420.477 53.0327 416.638 49.5507 409.962 51.9457C411.824 54.9507 413.306 57.3427 414.534 59.3247C417.991 58.5257 420.798 57.8777 424.331 57.0617ZM398.482 61.5997C391.358 62.5487 383.73 58.6717 376.781 63.9337C384.583 66.1397 391.47 62.6517 398.482 61.5997ZM442.613 60.6327C437.113 59.7221 431.185 60.9054 424.83 64.1827C431.439 66.7627 436.134 59.5827 442.613 60.6327ZM382.17 48.3797C387.637 49.3707 393.129 50.4667 398.513 48.3797H382.17ZM414.379 46.3797C419.244 47.3397 424.189 48.4337 429.029 46.3797H414.379ZM429.255 54.6377C432.384 53.6347 434.984 52.8007 437.584 51.9677C434.543 51.2827 431.239 49.7167 429.255 54.6377ZM419 114.859C419.275 112.221 422.005 109.381 419 106.538V114.859ZM352.803 45.3797C352.779 44.8927 352.755 44.4057 352.731 43.9187C350.668 44.0567 348.606 44.1947 346.543 44.3317C346.567 44.6807 346.591 45.0297 346.615 45.3787H352.802L352.803 45.3797ZM427.282 71.1527L427.254 69.8887L422.72 70.4987L422.79 71.3807L427.282 71.1527ZM460.88 66.4417C460.525 66.6367 460.157 66.8397 459.789 67.0417C460.231 67.7877 460.796 67.7877 461.483 67.0417C461.295 66.8547 461.107 66.6667 460.88 66.4417ZM418.537 101.374C418.763 101.149 418.951 100.961 419.14 100.774C418.453 100.028 417.888 100.028 417.446 100.774C417.814 100.976 418.182 101.179 418.537 101.374ZM420.231 93.4267C419.876 93.6217 419.508 93.8247 419.14 94.0267C419.582 94.7727 420.146 94.7727 420.834 94.0267C420.646 93.8397 420.458 93.6517 420.231 93.4267ZM408.978 56.9227C408.536 56.1767 407.972 56.1767 407.284 56.9227C407.726 57.6687 408.291 57.6687 408.978 56.9227Z" fill="white"/>
<path d="M335.311 55.2497C314.756 38.8437 297.366 22.2437 272.094 12.4947C252.577 4.96572 216.008 1.90371 198.744 16.6567C179.013 17.8907 164.301 41.1577 151.748 53.2087C143.578 48.2247 168.813 25.2317 172.649 22.2807C188.764 9.88173 211.145 3.86571 230.904 1.16171C252.415 -1.78229 270.798 0.604718 289.406 11.3737C300.969 18.0657 341.062 38.2717 335.311 55.2487V55.2497Z" fill="white"/>
<path d="M338.392 164.294C338.116 164.508 337.081 165.31 336.159 166.025C332.319 163.241 334.454 150.905 334.454 146.359C336.686 147.621 338.001 148.363 339.308 149.102C336.757 153.934 337.944 158.482 338.391 164.293L338.392 164.294Z" fill="white"/>
<path d="M411.793 113.659C410.894 114.513 410.014 115.35 409.245 116.081C408.473 114.107 408.886 112.898 411.793 113.659Z" fill="white"/>
<path d="M334.454 53.5497C331.668 45.6877 325.219 40.9847 319.235 35.8127C308.664 26.6747 296.155 20.5037 284.412 13.1947C275.944 7.92474 260.471 2.71774 249.767 3.78874C249.208 3.84474 248.638 3.80672 248.074 3.79472C224.743 3.30272 203.012 8.34074 182.768 20.4997C169.525 28.4537 158.509 38.0097 151.532 51.8627" stroke="white" stroke-width="2" stroke-linecap="round" stroke-linejoin="round"/>
<path d="M170.164 75.4747C171.858 77.1617 173.551 78.8477 175.17 80.4597C177.282 95.9297 178.313 111.388 177.722 126.913C177.593 130.303 176.458 133.644 176.151 137.04C175.873 140.107 175.98 143.224 176.119 146.31C176.323 150.861 172.697 153.973 171.838 158.113C171.605 159.237 171.124 160.31 170.533 162.077C172.618 162.49 174.341 162.987 176.095 163.148C181.188 163.616 186.507 162.035 191.359 164.841C191.9 164.302 192.927 163.765 192.96 163.174C193.38 155.554 199.108 149.179 198.037 141.178C196.7 139.847 195.288 138.441 193.754 136.914C194.341 135.591 194.956 134.205 195.57 132.82" stroke="white" stroke-width="2" stroke-linecap="round" stroke-linejoin="round"/>
<path d="M194.723 86.4377C194.158 85.3137 193.122 84.1907 193.116 83.0637C193.099 79.4657 190.767 78.2487 187.963 77.1227C185.629 76.1857 183.468 74.8297 181.165 73.8047C175.963 71.4877 175.946 71.5237 170.163 74.6317" stroke="white" stroke-width="2" stroke-linecap="round" stroke-linejoin="round"/>
<path d="M169.317 74.6317C164.169 74.6667 159.047 74.4737 154.074 72.9447" stroke="white" stroke-width="2" stroke-linecap="round" stroke-linejoin="round"/>
<path d="M100.722 53.9707C96.77 52.9867 92.863 51.5137 88.854 51.1507C84.472 50.7537 84.579 48.1257 84.632 45.1157" stroke="white" stroke-width="2" stroke-linecap="round" stroke-linejoin="round"/>
<path d="M352.238 136.192C352.52 134.224 353.029 132.259 353.049 130.289C353.232 112.254 352.722 94.2527 350.659 76.3057C350.436 74.3687 351.806 72.2507 352.667 69.4757C356.102 72.1217 359.091 73.9677 361.453 76.4147C362.847 77.8587 363.95 80.2487 363.966 82.2227C364.018 88.9667 363.529 95.7147 363.247 102.461" stroke="white" stroke-width="2" stroke-linecap="round" stroke-linejoin="round"/>
<path d="M174.398 142.095C173.833 142.095 173.265 142.14 172.705 142.087C169.881 141.822 166.915 140.864 164.274 141.428C161.286 142.066 158.572 144.027 155.772 145.476C151.453 147.711 146.796 147.079 142.218 147.154" stroke="white" stroke-width="2" stroke-linecap="round" stroke-linejoin="round"/>
<path d="M122.74 152.636C117.175 155.631 110.377 154.641 104.935 158.084C104.533 158.338 103.766 158.278 103.272 158.093C98.315 156.227 92.375 157.906 88.018 153.903C88.603 148.99 95.251 146.342 92.308 139.729C90.343 138.608 87.487 136.979 84.632 135.349" stroke="white" stroke-width="2" stroke-linecap="round" stroke-linejoin="round"/>
<path d="M103.262 73.7887C102.98 78.8487 101.909 84.0247 102.643 88.9337C103.339 93.5887 103.075 97.9547 102.436 102.463C102.04 105.258 101.829 108.08 101.574 110.893C101.268 114.264 101.004 117.639 100.722 121.012" stroke="white" stroke-width="2" stroke-linecap="round" stroke-linejoin="round"/>
<path d="M122.317 42.5867C113.143 42.3057 103.803 40.8687 94.85 42.1377C88.564 43.0287 82.388 43.0017 76.167 43.4867C66.294 44.2567 56.483 45.6457 46.518 45.2347C43.748 45.1207 41.162 47.6557 38.054 46.8027C35.742 50.5427 32.008 49.0877 28.739 49.3327" stroke="white" stroke-width="2" stroke-linecap="round" stroke-linejoin="round"/>
<path d="M314.13 77.5828C309.896 77.1608 305.661 76.7397 301.427 76.3177" stroke="white" stroke-width="2" stroke-linecap="round" stroke-linejoin="round"/>
<path d="M279.409 73.7887C277.996 76.5987 276.583 79.4087 274.947 82.6617C278.387 88.0847 277.685 94.4837 277.708 100.775C277.738 109.208 277.67 117.641 277.754 126.073C277.771 127.762 278.28 129.447 278.563 131.133" stroke="white" stroke-width="2" stroke-linecap="round" stroke-linejoin="round"/>
<path d="M256.543 82.2208C253.343 80.5398 249.904 80.2818 246.381 80.5338" stroke="white" stroke-width="2" stroke-linecap="round" stroke-linejoin="round"/>
<path d="M229.444 81.7997C225.756 82.1277 222.268 83.7197 218.317 81.5967C216.467 80.6027 213.348 81.8937 210.815 82.2357C208.566 82.5397 206.334 82.9648 204.875 83.2068C202.044 85.3487 199.654 87.1587 197.263 88.9677" stroke="white" stroke-width="2" stroke-linecap="round" stroke-linejoin="round"/>
<path d="M223.516 67.8857C220.365 63.9677 215.94 68.2907 212.507 66.1987C208.555 68.6907 204.689 65.2137 200.626 66.0827C196.79 66.9027 192.735 67.0907 188.798 66.9497C184.831 66.8077 180.903 65.7907 176.934 65.4017C174.418 65.1547 171.791 64.9907 169.332 65.4377C165.23 66.1827 161.359 65.5467 157.461 64.5127" stroke="white" stroke-width="2" stroke-linecap="round" stroke-linejoin="round"/>
<path d="M262.471 146.311C258.314 147.176 254.145 148.572 250.548 144.686C249.889 143.974 248.368 143.884 247.226 143.809C237.914 143.197 228.588 142.767 219.286 142.036C215.87 141.768 212.588 143.001 209.095 142.196C205.818 141.44 202.344 141.532 198.956 141.251" stroke="white" stroke-width="2" stroke-linecap="round" stroke-linejoin="round"/>
<path d="M114.271 77.1617C112.013 75.4747 109.891 73.5357 107.431 72.2227C106.402 71.6737 104.657 72.4547 103.114 72.6467C101.317 71.4917 99.2789 70.1817 97.5199 69.0507C87.9979 68.0847 78.6929 67.1417 69.3879 66.1987" stroke="white" stroke-width="2" stroke-linecap="round" stroke-linejoin="round"/>
<path d="M56.6849 68.7288C55.2739 69.0098 53.8619 69.2907 52.4509 69.5717" stroke="white" stroke-width="2" stroke-linecap="round" stroke-linejoin="round"/>
<path d="M455.555 51.0197C452.168 50.9857 448.872 49.2258 445.336 50.9008C444.294 51.3938 441.9 50.9397 441.282 50.0877C439.26 47.3027 435.787 48.3408 433.59 46.7328C427.828 42.5138 421.291 43.3588 414.911 43.5528C412.911 43.6138 410.955 45.1177 408.979 45.9607" stroke="white" stroke-width="2" stroke-linecap="round" stroke-linejoin="round"/>
<path d="M420.834 66.1987C423.947 66.7157 427.06 67.2317 430.859 67.8627C435.23 63.4207 441.878 63.0537 448.602 61.1427C449.736 61.7917 451.375 62.7307 453.014 63.6697" stroke="white" stroke-width="2" stroke-linecap="round" stroke-linejoin="round"/>
<path d="M411.518 76.3177C409.575 75.1567 407.632 73.9957 405.861 72.9377C402.773 73.5357 399.965 74.4207 397.119 74.5677C388.377 75.0217 379.62 75.1778 370.871 75.5078C370.297 75.5298 369.741 76.0357 369.176 76.3167" stroke="white" stroke-width="2" stroke-linecap="round" stroke-linejoin="round"/>
<path d="M405.59 47.6467C402.204 44.6627 398.528 42.7857 393.725 43.3537C390.385 43.7497 386.947 43.6107 383.575 43.3847C379.165 43.0897 375.453 44.2207 372.563 47.6457" stroke="white" stroke-width="2" stroke-linecap="round" stroke-linejoin="round"/>
<path d="M42.2889 137.035C39.7469 137.588 37.2039 138.142 34.5649 138.716C31.5689 142.38 28.5339 146.092 25.4489 149.864C20.2619 149.518 15.1849 149.179 10.1079 148.841" stroke="white" stroke-width="2" stroke-linecap="round" stroke-linejoin="round"/>
<path d="M261.625 102.46C263.055 105.441 262.954 108.27 260.794 110.116C261.475 112.828 262.412 114.815 262.399 116.796C262.325 127.8 262.952 138.749 264.081 149.693C264.365 152.446 263.728 155.327 263.28 158.111C262.89 160.535 264.207 161.891 266.32 163.31C269.552 162.752 273.21 162.121 276.868 161.49" stroke="white" stroke-width="2" stroke-linecap="round" stroke-linejoin="round"/>
<path d="M281.102 151.371C281.642 150.234 282.181 149.098 282.991 147.394C279.664 144.038 279.478 138.977 277.715 134.505" stroke="white" stroke-width="2" stroke-linecap="round" stroke-linejoin="round"/>
<path d="M403.05 62.8257C402.203 63.3877 401.416 64.3017 400.5 64.4567C392.655 65.7877 384.86 67.8937 376.809 66.9467C375.318 66.7717 373.975 65.3557 372.563 64.5127" stroke="white" stroke-width="2" stroke-linecap="round" stroke-linejoin="round"/>
<path d="M464.87 114.266C459.224 115.39 453.449 116.095 447.975 117.776C443.81 119.055 440.029 121.575 436.077 123.542" stroke="white" stroke-width="2" stroke-linecap="round" stroke-linejoin="round"/>
<path d="M19.4229 122.699C18.7819 127.778 16.8529 132.238 13.5319 136.222C9.42292 141.152 5.59092 146.31 1.63892 151.37" stroke="white" stroke-width="2" stroke-linecap="round" stroke-linejoin="round"/>
<path d="M323.445 64.5128C322.88 64.2318 322.345 63.8257 321.747 63.6887C316.449 62.4747 302.621 63.8648 296.346 66.1988" stroke="white" stroke-width="2" stroke-linecap="round" stroke-linejoin="round"/>
<path d="M115.118 81.3777C114.836 83.3457 114.553 85.3127 114.271 87.2807" stroke="white" stroke-width="2" stroke-linecap="round" stroke-linejoin="round"/>
<path d="M114.695 128.602C117.528 136.111 115.478 142.458 109.769 148.292C110.113 150.281 110.499 152.513 110.884 154.744" stroke="white" stroke-width="2" stroke-linecap="round" stroke-linejoin="round"/>
<path d="M21.964 115.953C28.739 117.921 35.521 119.864 42.283 121.875C43.734 122.306 45.112 122.98 46.523 123.542" stroke="white" stroke-width="2" stroke-linecap="round" stroke-linejoin="round"/>
<path d="M325.139 67.0417C320.285 69.2407 315.127 69.5597 309.896 69.5977C306.993 69.6187 303.868 68.7948 301.427 71.2578" stroke="white" stroke-width="2" stroke-linecap="round" stroke-linejoin="round"/>
<path d="M69.3879 54.3927C70.2349 55.2357 71.024 56.7417 71.937 56.8197C80.672 57.5707 89.3429 59.4357 98.1779 58.5857C99.3239 58.4757 100.439 58.0467 101.568 57.7657" stroke="white" stroke-width="2" stroke-linecap="round" stroke-linejoin="round"/>
<path d="M214.201 147.154C218.153 147.716 222.092 148.409 226.061 148.797C228.963 149.08 231.69 149.286 234.593 150.342C240.783 152.594 247.125 151.351 253.143 148.81C253.244 148.767 253.156 148.278 253.156 147.997" stroke="white" stroke-width="2" stroke-linecap="round" stroke-linejoin="round"/>
<path d="M408.131 124.386C408.976 124.671 409.822 124.957 411.533 125.534C406.189 129.709 402.552 135.827 395.424 136.038C389.592 136.21 384.958 138.017 381.032 142.095" stroke="white" stroke-width="2" stroke-linecap="round" stroke-linejoin="round"/>
<path d="M198.957 105.833C201.485 106.449 204.013 107.064 206.442 107.656L210.162 103.952C208.96 102.886 207.769 101.83 206.379 100.597C204.281 101.192 202.042 101.826 199.804 102.461" stroke="white" stroke-width="2" stroke-linecap="round" stroke-linejoin="round"/>
<path d="M345.463 40.9008C345.199 42.3078 344.935 43.7138 344.633 45.3278C345.008 50.0138 349.436 48.8808 352.238 50.1768C353.932 49.3338 355.625 48.4898 357.319 47.6468" stroke="white" stroke-width="2" stroke-linecap="round" stroke-linejoin="round"/>
<path d="M284 139.38H318.713C320.1 140.43 321.71 141.648 323.482 142.99C327.411 141.679 331.965 142.651 335.301 139.38C338.688 140.165 342.076 139.119 345.463 139.38" stroke="white" stroke-width="2" stroke-linecap="round" stroke-linejoin="round"/>
<path d="M65.1539 134.505C61.7669 137.878 58.3789 141.251 54.9919 144.624C52.4509 144.624 49.9109 144.624 47.3689 144.621C45.6749 145.745 44.1139 147.452 42.2609 147.869C38.9769 148.606 35.5149 148.559 32.1279 148.84" stroke="white" stroke-width="2" stroke-linecap="round" stroke-linejoin="round"/>
<path d="M461.483 105.833C464.997 114.228 471.891 120.508 475.859 128.612C476.749 130.43 477.379 132.374 478.204 134.449C469.091 135.218 460.889 138.675 452.164 137.055C451.346 136.903 450.137 136.67 449.678 137.09C443.181 143.033 434.418 143.378 426.728 146.012C424.165 146.89 420.536 144.676 417.454 143.756C415.752 143.248 415.736 144.881 414.906 145.468" stroke="white" stroke-width="2" stroke-linecap="round" stroke-linejoin="round"/>
<path d="M126.127 78.7307C126.28 80.7087 126.433 82.6857 126.658 85.5897C125.697 86.8447 124.158 88.8557 122.226 91.3807H116" stroke="white" stroke-width="2" stroke-linecap="round" stroke-linejoin="round"/>
<path d="M425.068 115.109C425.901 118.187 422.306 116.856 421.513 118.916C419.804 117.592 416.817 116.299 416.861 115.119C416.989 111.718 413.986 108.363 416.54 105.066C415.701 103.615 414.88 102.195 414.058 100.774" stroke="white" stroke-width="2" stroke-linecap="round" stroke-linejoin="round"/>
<path d="M67.694 53.5497C65.383 53.6847 63.336 53.9248 60.835 52.9128C55.826 50.8858 50.484 51.3858 45.676 54.3928" stroke="white" stroke-width="2" stroke-linecap="round" stroke-linejoin="round"/>
<path d="M232.831 76.3177C230.553 74.3737 228.274 72.4287 225.654 70.1927C220.811 72.9317 215.428 72.8477 210.218 71.4497C206.908 72.5507 203.713 73.4308 200.67 74.6778C197.759 75.8698 195.005 77.4427 192.182 78.8477" stroke="white" stroke-width="2" stroke-linecap="round" stroke-linejoin="round"/>
<path d="M404.744 133.662C408.129 133.976 411.514 134.29 414.927 134.607C415.471 137.316 416.036 140.127 416.6 142.938" stroke="white" stroke-width="2" stroke-linecap="round" stroke-linejoin="round"/>
<path d="M57.532 61.1388C55.274 60.2958 53.064 58.9388 50.747 58.7208C46.55 58.3268 42.23 58.1697 38.07 58.7257C33.484 59.3377 29.021 60.8577 24.505 61.9817" stroke="white" stroke-width="2" stroke-linecap="round" stroke-linejoin="round"/>
<path d="M243.841 65.3556C237.405 64.3546 235.724 64.6056 226.904 67.8856" stroke="white" stroke-width="2" stroke-linecap="round" stroke-linejoin="round"/>
<path d="M331.914 118.483C327.529 118.031 326.118 120.962 324.997 123.956C326.095 127.289 328.172 128.237 331.068 127.759" stroke="white" stroke-width="2" stroke-linecap="round" stroke-linejoin="round"/>
<path d="M333.184 120.169C332.998 122.437 332.812 124.705 332.524 128.222C335.3 130.626 334.351 135.2 334.454 139.564" stroke="white" stroke-width="2" stroke-linecap="round" stroke-linejoin="round"/>
<path d="M251.462 67.0417C252.873 69.0097 254.136 71.1077 255.739 72.9077C257.299 74.6597 258.573 76.3757 258.237 78.8477" stroke="white" stroke-width="2" stroke-linecap="round" stroke-linejoin="round"/>
<path d="M254.85 89.8108C251.765 89.1378 248.15 91.3678 245.535 88.1238" stroke="white" stroke-width="2" stroke-linecap="round" stroke-linejoin="round"/>
<path d="M442.559 51.8628C441.286 54.2488 439.722 55.8628 436.64 56.1668C429.998 56.8198 424.094 59.5558 418.001 63.9538C418.001 66.1858 418.001 68.7228 418.001 71.2588V78.3808" stroke="white" stroke-width="2" stroke-linecap="round" stroke-linejoin="round"/>
<path d="M370.022 154.744C366.393 157.958 362.918 161.304 357.265 159.098C356.233 158.695 354.507 160.526 353.083 160.561C349.42 160.651 345.746 162.655 342.076 160.647" stroke="white" stroke-width="2" stroke-linecap="round" stroke-linejoin="round"/>
<path d="M448.78 137.035C444.828 133.1 440.805 129.232 436.948 125.207C434.097 122.232 430.645 120.449 426.762 119.326" stroke="white" stroke-width="2" stroke-linecap="round" stroke-linejoin="round"/>
<path d="M410.672 47.6467C413.213 48.4897 415.781 50.1057 418.288 50.0167C423.578 49.8267 425.736 52.9877 427.609 56.9227" stroke="white" stroke-width="2" stroke-linecap="round" stroke-linejoin="round"/>
<path d="M155.767 142.095C150.765 138.792 146.391 140.489 142.217 143.782" stroke="white" stroke-width="2" stroke-linecap="round" stroke-linejoin="round"/>
<path d="M358.166 144.624C356.814 149.055 357.385 153.606 357.319 158.117" stroke="white" stroke-width="2" stroke-linecap="round" stroke-linejoin="round"/>
<path d="M150.686 40.9007C147.581 39.1247 143.92 40.3027 141.484 41.2047C136.127 43.1897 131.638 42.6137 126.311 39.0687C125.33 40.9467 124.461 42.6127 123.048 45.3177C123.636 46.8897 124.881 50.2197 126.127 53.5497" stroke="white" stroke-width="2" stroke-linecap="round" stroke-linejoin="round"/>
<path d="M333.607 37.5267C338.797 39.4667 344.204 40.2947 349.694 39.9927C353.71 39.7717 356.886 40.7247 359.013 44.2737" stroke="white" stroke-width="2" stroke-linecap="round" stroke-linejoin="round"/>
<path d="M311.589 140.408C309.308 145.703 304.102 145.281 299.715 146.23C297.559 146.697 295.216 146.311 292.958 146.311" stroke="white" stroke-width="2" stroke-linecap="round" stroke-linejoin="round"/>
<path d="M115 100.38H122.928C124.502 104.105 122.53 106.792 120.424 109.38H116" stroke="white" stroke-width="2" stroke-linecap="round" stroke-linejoin="round"/>
<path d="M336.148 150.527C336.43 154.743 336.713 158.96 336.995 163.176" stroke="white" stroke-width="2" stroke-linecap="round" stroke-linejoin="round"/>
<path d="M68.541 84.7507C69.299 86.3457 70.057 87.9417 70.933 89.7857C67.365 92.1367 64.2941 94.1597 61.2681 96.1537C59.4431 94.9707 58.0641 94.0777 56.6851 93.1837" stroke="white" stroke-width="2" stroke-linecap="round" stroke-linejoin="round"/>
<path d="M258.237 89.8108C259.824 92.8148 261.41 95.8178 263.125 99.0648C260.604 101.183 258.476 102.971 256.106 104.962C256.882 106.507 257.56 107.857 258.237 109.206" stroke="white" stroke-width="2" stroke-linecap="round" stroke-linejoin="round"/>
<path d="M281.102 131.132C279.408 131.975 277.778 133.005 276.002 133.607C274.398 134.15 272.636 134.242 270.939 134.501C268.966 134.802 266.988 135.068 265.012 135.349" stroke="white" stroke-width="2" stroke-linecap="round" stroke-linejoin="round"/>
<path d="M116.812 137.035C120.512 138.656 124.972 138.637 127.821 142.095" stroke="white" stroke-width="2" stroke-linecap="round" stroke-linejoin="round"/>
<path d="M29.586 65.3557C30.715 66.4797 31.844 67.6047 32.976 68.7317C31.346 74.3047 26.14 76.0207 21.361 78.8407C23.554 80.1447 25.3 81.1827 27.045 82.2207" stroke="white" stroke-width="2" stroke-linecap="round" stroke-linejoin="round"/>
<path d="M137.137 54.3927C134.325 53.7817 131.513 53.1697 128.246 52.4597C125.927 54.4407 123.487 56.5247 121.047 58.6097" stroke="white" stroke-width="2" stroke-linecap="round" stroke-linejoin="round"/>
<path d="M25.351 88.9678C19.144 93.2048 18.818 94.6088 23.064 100.269C22.189 102.011 21.624 104.332 20.166 105.726C18.501 107.317 20.599 108.083 20.27 109.207" stroke="white" stroke-width="2" stroke-linecap="round" stroke-linejoin="round"/>
<path d="M77.857 80.5348C74.018 80.6488 69.923 79.6538 66.7 83.7768C64.443 81.5228 62.47 79.5528 60.454 77.5398C61.565 74.2828 62.513 71.5058 63.46 68.7288" stroke="white" stroke-width="2" stroke-linecap="round" stroke-linejoin="round"/>
<path d="M342.076 76.3177C338.971 76.0367 335.866 75.7557 332.761 75.4747" stroke="white" stroke-width="2" stroke-linecap="round" stroke-linejoin="round"/>
<path d="M459.789 92.3407C456.684 92.6217 453.579 92.9027 450.474 93.1837" stroke="white" stroke-width="2" stroke-linecap="round" stroke-linejoin="round"/>
<path d="M469.105 52.7068C464.771 53.3988 464.029 57.2718 462.33 60.2968" stroke="white" stroke-width="2" stroke-linecap="round" stroke-linejoin="round"/>
<path d="M21.964 80.5347C20.19 83.6267 18.896 86.7187 21.964 89.8107" stroke="white" stroke-width="2" stroke-linecap="round" stroke-linejoin="round"/>
<path d="M419.14 84.7507C416.082 87.8137 414.373 91.2907 415.918 96.2177C418.771 97.1117 421.919 98.0987 425.068 99.0857" stroke="white" stroke-width="2" stroke-linecap="round" stroke-linejoin="round"/>
<path d="M280.255 67.8857C277.767 67.1297 275.454 64.8167 272.593 67.0747C271.215 69.0047 269.807 70.9747 268.399 72.9457" stroke="white" stroke-width="2" stroke-linecap="round" stroke-linejoin="round"/>
<path d="M22.8109 63.6687C20.7849 68.3447 18.6979 73.0177 21.9639 78.0047" stroke="white" stroke-width="2" stroke-linecap="round" stroke-linejoin="round"/>
<path d="M60.0001 96.3798V104.009C58.1571 104.576 56.115 105.204 54.072 105.833" stroke="white" stroke-width="2" stroke-linecap="round" stroke-linejoin="round"/>
<path d="M424.221 131.132C425.632 133.1 427.35 134.924 428.367 137.076C429.34 139.133 429.584 141.532 430.149 143.781" stroke="white" stroke-width="2" stroke-linecap="round" stroke-linejoin="round"/>
<path d="M79.5499 76.3177C76.1629 75.1937 72.7749 74.0687 69.3879 72.9447" stroke="white" stroke-width="2" stroke-linecap="round" stroke-linejoin="round"/>
<path d="M166.777 145.468C165.366 146.784 163.954 146.784 162.543 145.468" stroke="white" stroke-width="2" stroke-linecap="round" stroke-linejoin="round"/>
<path d="M24.0811 56.9227C24.7851 62.2517 24.577 62.5497 20.27 62.4037" stroke="white" stroke-width="2" stroke-linecap="round" stroke-linejoin="round"/>
<path d="M328.526 101.617C327.397 101.476 326.268 101.336 325.139 101.195" stroke="white" stroke-width="2" stroke-linecap="round" stroke-linejoin="round"/>
<path d="M411.518 114.266C410.953 114.828 410.389 115.39 409.824 115.953" stroke="white" stroke-width="2" stroke-linecap="round" stroke-linejoin="round"/>
<defs>
<clipPath id="clip0_141_1219">
<rect width="949" height="110" fill="white" transform="translate(1 170)"/>
</clipPath>
</defs>
</svg>
