<svg width="39" height="37" viewBox="0 0 39 37" fill="none" xmlns="http://www.w3.org/2000/svg">
  <g transform="translate(3.5, 2)">
    <path d="M10.6667 25.375C9.42222 25.375 8.37037 24.9521 7.51111 24.1063C6.65185 23.2604 6.22222 22.225 6.22222 21C6.22222 19.775 6.65185 18.7396 7.51111 17.8938C8.37037 17.0479 9.42222 16.625 10.6667 16.625C11.9111 16.625 12.963 17.0479 13.8222 17.8938C14.6815 18.7396 15.1111 19.775 15.1111 21C15.1111 22.225 14.6815 23.2604 13.8222 24.1063C12.963 24.9521 11.9111 25.375 10.6667 25.375ZM3.55556 35C2.57778 35 1.74074 34.6573 1.04444 33.9719C0.348148 33.2865 0 32.4625 0 31.5V7C0 6.0375 0.348148 5.21354 1.04444 4.52813C1.74074 3.84271 2.57778 3.5 3.55556 3.5H5.33333V0H8.88889V3.5H23.1111V0H26.6667V3.5H28.4444C29.4222 3.5 30.2593 3.84271 30.9556 4.52813C31.6519 5.21354 32 6.0375 32 7V31.5C32 32.4625 31.6519 33.2865 30.9556 33.9719C30.2593 34.6573 29.4222 35 28.4444 35H3.55556ZM3.55556 31.5H28.4444V14H3.55556V31.5Z" fill="white"/>
  </g>
</svg>